<?xml version="1.0" encoding="UTF-8" standalone="no"?>
<svg
   xmlns:ns3="http://ns.adobe.com/AdobeIllustrator/10.0/"
   xmlns:dc="http://purl.org/dc/elements/1.1/"
   xmlns:cc="http://creativecommons.org/ns#"
   xmlns:rdf="http://www.w3.org/1999/02/22-rdf-syntax-ns#"
   xmlns:svg="http://www.w3.org/2000/svg"
   xmlns="http://www.w3.org/2000/svg"
   xmlns:sodipodi="http://sodipodi.sourceforge.net/DTD/sodipodi-0.dtd"
   xmlns:inkscape="http://www.inkscape.org/namespaces/inkscape"
   id="svg2"
   height="1080"
   width="1920"
   version="1.1"
   inkscape:version="0.91 r13725"
   sodipodi:docname="postroll.svg">
  <defs
     id="defs72" />
  <sodipodi:namedview
     pagecolor="#ffffff"
     bordercolor="#666666"
     borderopacity="1"
     objecttolerance="10"
     gridtolerance="10"
     guidetolerance="10"
     inkscape:pageopacity="0"
     inkscape:pageshadow="2"
     inkscape:window-width="1920"
     inkscape:window-height="1016"
     id="namedview70"
     showgrid="false"
     inkscape:zoom="0.6180637"
     inkscape:cx="743.70851"
     inkscape:cy="550.80517"
     inkscape:window-x="0"
     inkscape:window-y="27"
     inkscape:window-maximized="1"
     inkscape:current-layer="svg2" />
  <metadata
     id="metadata24">
    <rdf:RDF>
      <cc:Work
         rdf:about="">
        <dc:format>image/svg+xml</dc:format>
        <dc:type
           rdf:resource="http://purl.org/dc/dcmitype/StillImage" />
        <dc:title />
      </cc:Work>
    </rdf:RDF>
  </metadata>
  <rect
     y="0"
     x="0"
     height="1080"
     width="1920"
     id="rect3348"
     style="opacity:1;fill:#000000;fill-opacity:1" />
  <g
     transform="matrix(2.1692274,0,0,2.1692274,1099.1586,461.5)"
     ns3:rgbTrio="#4F008000FFFF"
     ns3:dimmedPercent="100"
     ns3:layer="yes"
     id="Background"
     style="fill:#ffffff" />
  <g
     transform="matrix(2.1692274,0,0,2.1692274,1099.1586,461.5)"
     ns3:rgbTrio="#4F008000FFFF"
     ns3:dimmedPercent="100"
     ns3:layer="yes"
     id="Guides"
     style="fill:#ffffff" />
  <g
     id="g3442">
    <g
       id="g4575"
       transform="translate(0.629774,-41.82001)">
      <g
         transform="matrix(2.1692274,0,0,2.1692274,1106.023,461.5)"
         ns3:rgbTrio="#4F008000FFFF"
         ns3:dimmedPercent="100"
         ns3:layer="yes"
         id="Foreground"
         style="fill:#ffffff">
        <g
           id="g3541"
           style="fill:#ffffff">
          <path
             id="path3543"
             d="m 94.282,49.116 c -2.759,-5.03 -7.465,-7.032 -12.928,-7.032 -7.951,0 -14.28,5.625 -14.28,15.146 0,9.682 5.95,15.145 14.55,15.145 5.517,0 10.223,-3.029 12.819,-7.627 l -6.058,-3.083 c -1.353,3.246 -3.408,4.22 -6.004,4.22 -4.49,0 -6.545,-3.732 -6.545,-8.654 0,-4.923 1.731,-8.655 6.545,-8.655 1.298,0 3.895,0.703 5.409,3.949 l 6.492,-3.409 z"
             ns3:knockout="Off"
             style="clip-rule:evenodd;fill:#ffffff;fill-rule:evenodd;stroke-width:106px;stroke-opacity:0" />
          <path
             id="path3545"
             d="m 109.746,48.575 c 4.814,0 6.87,3.732 6.87,8.33 0,5.247 -2.056,8.979 -6.87,8.979 -4.814,0 -6.869,-3.732 -6.869,-8.654 0,-4.922 2.055,-8.655 6.869,-8.655 z m 0,-6.491 c -8.979,0 -15.307,5.463 -15.307,15.146 0,9.682 6.328,15.145 15.307,15.145 8.979,0 15.308,-5.463 15.308,-15.145 0,-9.682 -6.329,-15.146 -15.308,-15.146 z"
             ns3:knockout="Off"
             style="clip-rule:evenodd;fill:#ffffff;fill-rule:evenodd;stroke-width:106px;stroke-opacity:0" />
          <path
             id="path3547"
             d="m 126.783,71.617 8.438,0 0,-17.903 c 0,-2.596 1.082,-4.814 4.489,-4.814 3.246,0 4.111,1.893 4.111,4.706 l 0,18.012 8.438,0 0,-17.688 c 0,-2.921 1.46,-5.03 4.273,-5.03 3.191,0 4.327,1.839 4.327,5.896 l 0,16.821 8.438,0 0,-21.96 c 0,-6.599 -6.058,-7.573 -8.871,-7.573 -3.354,0 -6.491,1.028 -9.249,3.84 -1.894,-2.542 -4.327,-3.84 -7.627,-3.84 -2.596,0 -6.166,0.757 -8.33,3.3 l 0,-2.542 -8.438,0 0,28.775 z"
             ns3:knockout="Off"
             style="clip-rule:evenodd;fill:#ffffff;fill-rule:evenodd;stroke-width:106px;stroke-opacity:0" />
          <path
             id="path3549"
             d="m 171.997,71.617 8.438,0 0,-17.903 c 0,-2.596 1.082,-4.814 4.489,-4.814 3.246,0 4.111,1.893 4.111,4.706 l 0,18.012 8.438,0 0,-17.688 c 0,-2.921 1.46,-5.03 4.272,-5.03 3.191,0 4.328,1.839 4.328,5.896 l 0,16.821 8.438,0 0,-21.96 c 0,-6.599 -6.059,-7.573 -8.871,-7.573 -3.354,0 -6.49,1.028 -9.249,3.84 -1.893,-2.542 -4.327,-3.84 -7.627,-3.84 -2.596,0 -6.166,0.757 -8.33,3.3 l 0,-2.542 -8.438,0 0,28.775 z"
             ns3:knockout="Off"
             style="clip-rule:evenodd;fill:#ffffff;fill-rule:evenodd;stroke-width:106px;stroke-opacity:0" />
          <path
             id="path3551"
             d="m 231.544,48.575 c 4.813,0 6.869,3.732 6.869,8.33 0,5.247 -2.056,8.979 -6.869,8.979 -4.814,0 -6.87,-3.732 -6.87,-8.654 0,-4.922 2.056,-8.655 6.87,-8.655 z m 0,-6.491 c -8.979,0 -15.308,5.463 -15.308,15.146 0,9.682 6.328,15.145 15.308,15.145 8.979,0 15.308,-5.463 15.308,-15.145 0,-9.682 -6.329,-15.146 -15.308,-15.146 z"
             ns3:knockout="Off"
             style="clip-rule:evenodd;fill:#ffffff;fill-rule:evenodd;stroke-width:106px;stroke-opacity:0" />
          <path
             id="path3553"
             d="m 249.122,71.617 8.438,0 0,-17.903 c 0,-2.596 1.082,-4.814 4.49,-4.814 3.245,0 4.11,1.893 4.11,4.706 l 0,18.012 8.438,0 0,-21.258 c 0,-4.327 -1.894,-8.276 -8.709,-8.276 -2.596,0 -6.166,0.757 -8.33,3.3 l 0,-2.542 -8.438,0 0,28.775 z"
             ns3:knockout="Off"
             style="clip-rule:evenodd;fill:#ffffff;fill-rule:evenodd;stroke-width:106px;stroke-opacity:0" />
          <path
             id="path3555"
             d="m 302.774,46.25 c -3.895,-2.596 -8.275,-4.165 -12.711,-4.165 -5.843,0 -12.171,2.813 -12.171,10.061 0,10.223 17.038,6.653 17.038,11.143 0,2.597 -3.19,2.921 -4.598,2.921 -3.84,0 -6.49,-1.568 -9.087,-4.057 l -5.247,4.543 c 4.22,3.895 7.789,5.68 14.064,5.68 6.273,0 12.981,-2.705 12.981,-10.277 0,-10.764 -17.038,-6.707 -17.038,-11.629 0,-1.46 1.514,-2.217 3.623,-2.217 2.651,0 6.275,1.082 7.951,3.083 l 5.195,-5.086 z"
             ns3:knockout="Off"
             style="clip-rule:evenodd;fill:#ffffff;fill-rule:evenodd;stroke-width:106px;stroke-opacity:0" />
          <path
             id="path3557"
             d="m 94.282,16.011 c -2.759,-5.03 -7.465,-7.032 -12.928,-7.032 -7.951,0 -14.28,5.625 -14.28,15.145 0,9.682 5.95,15.146 14.55,15.146 5.517,0 10.223,-3.029 12.819,-7.627 L 88.385,28.56 c -1.353,3.246 -3.408,4.219 -6.004,4.219 -4.49,0 -6.545,-3.732 -6.545,-8.655 0,-4.922 1.731,-8.654 6.545,-8.654 1.298,0 3.895,0.703 5.409,3.949 l 6.492,-3.408 z"
             ns3:knockout="Off"
             style="clip-rule:evenodd;fill:#ffffff;fill-rule:evenodd;stroke-width:106px;stroke-opacity:0" />
          <path
             id="path3559"
             d="m 96.34,38.512 8.438,0 0,-16.66 c 0,-3.191 2.001,-4.057 7.032,-4.652 l 0.919,-0.108 -0.054,-7.464 c -2.975,0.217 -6.058,1.298 -7.897,3.029 l 0,-2.921 -8.438,0 0,28.776 z"
             ns3:knockout="Off"
             style="clip-rule:evenodd;fill:#ffffff;fill-rule:evenodd;stroke-width:106px;stroke-opacity:0" />
          <path
             id="path3561"
             d="m 141.386,25.855 c -0.054,-8.871 -3.624,-16.876 -14.118,-16.876 -8.763,0 -14.118,5.842 -14.118,16.011 0,8.113 5.193,14.28 14.118,14.28 6.437,0 11.034,-2.542 13.955,-7.951 l -6.329,-3.3 c -2.434,3.462 -3.895,5.084 -7.032,5.084 -2.704,0 -6.22,-1.731 -6.274,-7.248 l 19.798,0 z m -19.905,-5.192 c 0.378,-3.787 3.299,-5.517 5.733,-5.517 2.434,0 5.463,1.298 5.733,5.517 l -11.466,0 z"
             ns3:knockout="Off"
             style="clip-rule:evenodd;fill:#ffffff;fill-rule:evenodd;stroke-width:106px;stroke-opacity:0" />
          <path
             id="path3563"
             d="m 160.742,26.504 c 0,4.381 -2.488,6.599 -5.788,6.599 -2.056,0 -3.949,-0.974 -3.949,-3.245 0,-2.326 1.947,-3.137 4.057,-3.732 l 5.68,-1.623 0,2.001 z m 8.113,-9.195 c -0.054,-6.491 -4.976,-8.33 -12.819,-8.33 -3.895,0 -11.575,0.757 -11.846,9.033 l 8.114,0 c 0.433,-2.867 1.73,-3.84 4.435,-3.84 2.272,0 4.003,0.919 4.003,3.083 l 0,2.38 -3.083,0.433 c -9.195,1.298 -14.767,3.732 -14.767,10.656 0,5.517 4.111,8.546 9.628,8.546 3.029,0 7.248,-1.46 8.654,-3.732 l 0.108,0 c 0.054,0.974 0.217,2.001 0.541,2.975 l 7.789,0 c -0.703,-1.785 -0.757,-4.002 -0.757,-6.004 l 0,-15.2 z"
             ns3:knockout="Off"
             style="clip-rule:evenodd;fill:#ffffff;fill-rule:evenodd;stroke-width:106px;stroke-opacity:0" />
          <path
             id="path3565"
             d="m 188.699,10.277 -5.031,0 0,-8.33 -8.438,0 0,8.33 -4.11,0 0,5.192 4.11,0 0,15.146 c 0,4.165 1.028,8.654 8.223,8.654 1.839,0 4.327,-0.216 5.409,-0.325 l 0,-6.653 c -0.434,0.054 -1.623,0.162 -2.542,0.162 -1.516,0 -2.651,-0.595 -2.651,-2.867 l 0,-14.116 5.031,0 0,-5.193 z"
             ns3:knockout="Off"
             style="clip-rule:evenodd;fill:#ffffff;fill-rule:evenodd;stroke-width:106px;stroke-opacity:0" />
          <path
             id="path3567"
             d="m 191.876,9.736 0,28.776 8.438,0 0,-28.776 -8.438,0 z m 8.439,-3.245 0,-6.491 -8.438,0 0,6.491 8.438,0 z"
             ns3:knockout="Off"
             style="clip-rule:evenodd;fill:#ffffff;fill-rule:evenodd;stroke-width:106px;stroke-opacity:0" />
          <polygon
             id="polygon3569"
             points="221.028,9.736 216.051,30.074 215.944,30.074 210.966,9.736 201.934,9.736 211.67,38.512 220.162,38.512 230.007,9.736 "
             ns3:knockout="Off"
             style="clip-rule:evenodd;fill:#ffffff;fill-rule:evenodd" />
          <path
             id="path3571"
             d="m 257.256,25.855 c -0.054,-8.871 -3.624,-16.876 -14.117,-16.876 -8.764,0 -14.117,5.842 -14.117,16.011 0,8.113 5.191,14.28 14.117,14.28 6.437,0 11.034,-2.542 13.955,-7.951 l -6.329,-3.3 c -2.434,3.462 -3.895,5.084 -7.031,5.084 -2.704,0 -6.221,-1.731 -6.274,-7.248 l 19.796,0 z m -19.905,-5.192 c 0.379,-3.787 3.299,-5.517 5.733,-5.517 2.434,0 5.464,1.298 5.734,5.517 l -11.467,0 z"
             ns3:knockout="Off"
             style="clip-rule:evenodd;fill:#ffffff;fill-rule:evenodd;stroke-width:106px;stroke-opacity:0" />
          <g
             id="g3573"
             style="fill:#ffffff">
            <path
               id="path3575"
               d="M 31.602,8.495 C 22.92,8.495 15.28,11.708 9.376,17.698 3.299,23.863 0,31.85 0,40.185 c 0,8.421 3.212,16.235 9.29,22.313 6.077,6.077 13.978,9.376 22.312,9.376 8.334,0 16.409,-3.299 22.66,-9.463 5.904,-5.817 9.029,-13.544 9.029,-22.226 0,-8.595 -3.125,-16.409 -9.116,-22.4 -6.077,-6.077 -13.891,-9.29 -22.573,-9.29 z m 0.087,5.731 c 7.119,0 13.457,2.691 18.406,7.64 4.861,4.862 7.466,11.287 7.466,18.319 0,7.119 -2.518,13.37 -7.38,18.146 -5.123,5.035 -11.721,7.727 -18.493,7.727 -6.859,0 -13.284,-2.691 -18.232,-7.64 -4.949,-4.95 -7.727,-11.461 -7.727,-18.233 0,-6.859 2.778,-13.37 7.727,-18.406 4.862,-4.948 11.114,-7.553 18.233,-7.553 z"
               ns3:knockout="Off"
               style="clip-rule:evenodd;fill:#ffffff;fill-rule:evenodd;stroke-width:106px;stroke-opacity:0" />
            <path
               id="path3577"
               d="m 31.28,34.919 c -1.79,-3.264 -4.844,-4.563 -8.389,-4.563 -5.16,0 -9.267,3.65 -9.267,9.829 0,6.283 3.861,9.829 9.443,9.829 3.581,0 6.634,-1.966 8.319,-4.949 l -3.932,-2.001 c -0.878,2.106 -2.211,2.738 -3.896,2.738 -2.914,0 -4.247,-2.422 -4.247,-5.616 0,-3.194 1.123,-5.617 4.247,-5.617 0.842,0 2.527,0.457 3.51,2.562 l 4.212,-2.212 z"
               ns3:knockout="Off"
               style="clip-rule:evenodd;fill:#ffffff;fill-rule:evenodd;stroke-width:106px;stroke-opacity:0" />
            <path
               id="path3579"
               d="m 49.562,34.919 c -1.791,-3.264 -4.844,-4.563 -8.389,-4.563 -5.16,0 -9.268,3.65 -9.268,9.829 0,6.283 3.862,9.829 9.443,9.829 3.581,0 6.634,-1.966 8.319,-4.949 l -3.932,-2.001 c -0.877,2.106 -2.211,2.738 -3.896,2.738 -2.913,0 -4.248,-2.422 -4.248,-5.616 0,-3.194 1.124,-5.617 4.248,-5.617 0.842,0 2.527,0.457 3.511,2.562 l 4.212,-2.212 z"
               ns3:knockout="Off"
               style="clip-rule:evenodd;fill:#ffffff;fill-rule:evenodd;stroke-width:106px;stroke-opacity:0" />
          </g>
        </g>
      </g>
      <g
         transform="matrix(0.8756879,0,0,0.8756879,-286.74713,-537.84251)"
         id="g4478">
        <circle
           style="fill:#000000"
           cx="1502.4108"
           cy="1242.6632"
           r="69.364563"
           id="circle3649" />
        <g
           id="g3651"
           transform="matrix(2.453125,0,0,2.453125,1410.0825,1171.9985)"
           style="fill:#ffffff">
          <path
             style="fill:#ffffff;stroke-width:106px;stroke-opacity:0"
             d="m 37.443,-3.5 c 8.988,0 16.57,3.085 22.742,9.257 6.208,6.21 9.315,13.791 9.315,22.743 0,8.991 -3.049,16.476 -9.145,22.456 C 53.879,57.319 46.242,60.5 37.443,60.5 28.794,60.5 21.29,57.356 14.929,51.07 8.644,44.784 5.5,37.262 5.5,28.5 5.5,19.739 8.644,12.158 14.929,5.758 21.101,-0.415 28.604,-3.5 37.443,-3.5 Z m 0.114,5.772 c -7.276,0 -13.428,2.553 -18.457,7.657 -5.22,5.334 -7.829,11.525 -7.829,18.572 0,7.086 2.59,13.22 7.77,18.398 5.181,5.182 11.352,7.771 18.514,7.771 7.123,0 13.334,-2.607 18.629,-7.828 5.029,-4.838 7.543,-10.952 7.543,-18.343 0,-7.276 -2.553,-13.465 -7.656,-18.571 C 50.967,4.824 44.795,2.272 37.557,2.272 Z m 8.572,18.285 0,13.085 -3.656,0 0,15.542 -9.944,0 0,-15.541 -3.656,0 0,-13.086 c 0,-0.572 0.2,-1.057 0.599,-1.457 0.401,-0.399 0.887,-0.6 1.457,-0.6 l 13.144,0 c 0.533,0 1.01,0.2 1.428,0.6 0.417,0.4 0.628,0.886 0.628,1.457 z M 33.042,12.329 c 0,-3.008 1.485,-4.514 4.458,-4.514 2.973,0 4.457,1.504 4.457,4.514 0,2.971 -1.486,4.457 -4.457,4.457 -2.971,0 -4.458,-1.486 -4.458,-4.457 z"
             id="path3653" />
        </g>
      </g>
    </g>
    <text
       id="text3372"
       y="650.95966"
       x="850.4248"
       style="font-style:normal;font-weight:normal;font-size:45px;line-height:125%;font-family:Sans;letter-spacing:0px;word-spacing:0px;fill:#ffffff;fill-opacity:1;stroke:none;stroke-width:1px;stroke-linecap:butt;stroke-linejoin:miter;stroke-opacity:1"
       xml:space="preserve"><tspan
         y="650.95966"
         x="850.4248"
         id="tspan3374">https://creativecommons.org/licenses/by/4.0/</tspan></text>
  </g>
  <g
     id="g3472"
     style="fill:#ffffff"
     transform="matrix(0.47061827,0,0,0.47061827,153.4228,248.49837)">
    <path
       id="path3474"
       d="m 1260.2378,1136.1412 c -12.5825,0.062 -22.6813,-9.9702 -22.5975,-22.4538 0.081,-12.0462 10.245,-22.3 22.235,-22.4362 12.2375,-0.14 22.5375,10.2662 22.475,22.6962 -0.05,12.3413 -9.8125,22.1313 -22.1125,22.1938 z m -214.7213,-127.4088 c -12.34,-0.039 -22.1687,-9.81495 -22.2237,-22.1012 -0.056,-12.4625 10.2037,-22.845 22.4712,-22.7425 11.9163,0.10125 22.2825,10.455 22.405,22.37875 0.1263,12.31875 -10.1462,22.50495 -22.6525,22.46495 z m -37.3637,-26.25995 c -0.3725,2.39 -2.17,5.39125 -4.2038,6.56875 -116.5575,67.495 -233.215,134.8133 -349.80875,202.2451 -2.9675,1.7147 -5.06375,1.5121 -7.895,-0.1241 -116.245,-67.1997 -232.54125,-134.3135 -348.74,-201.59475 -2.04125,-1.18125 -3.8825,-4.15875 -4.24625,-6.54 -1.72875,-11.29 -6.83,-20.285 -15.88375,-27.3425 -2.01625,-1.57125 -3.75125,-4.92125 -3.755,-7.45375 -0.17875,-133.95 -0.1375,-267.9 -0.25125,-401.84875 -0.004,-4.08875 1.24875,-6.255 4.805,-8.305 115.7925,-66.73625 231.52125,-133.5825 347.20625,-200.505 3.2525,-1.88125 5.53125,-2.03125 8.90125,-0.009 11.335,6.8075 23.33875,7.22625 35.24125,1.60625 3.475,-1.64 5.8425,-1.45625 9.06875,0.41125 114.42875,66.18375 228.905,132.28625 343.4425,198.2825 3.715,2.14 5.105,4.4125 5.095,8.74625 -0.1475,66.87 -0.1025,133.74125 -0.1025,200.61125 0,66.6625 -0.034,133.325 0.079,199.98625 0.01,4.25375 -0.7788,7.17375 -4.5388,9.905 -8.4875,6.16375 -12.795,14.9875 -14.4137,25.36 z M 255.824,1008.7437 c -12.43375,0.099 -22.38,-9.48 -22.55125,-21.72 -0.17375,-12.62125 9.61625,-22.88625 22.0525,-23.12 12.0125,-0.22625 22.84,10.52625 22.7925,22.6325 -0.0463,12.1075 -10.0875,22.11 -22.29375,22.2075 z M 653.399,282.8162 c 12.345,0.0588 22.48625,10.44625 22.33,22.87 -0.15375,12.1525 -10.1875,21.93625 -22.47375,21.91375 -12.21125,-0.0225 -22.2825,-9.93375 -22.40375,-22.05 -0.125,-12.275 10.305,-22.79 22.5475,-22.73375 z M 630.8115,37.246203 c 0.0925,-12.12625 10.20375,-22.24375 22.305,-22.315 12.285,-0.07375 22.69375,10.3875 22.5925,22.70625 -0.10125,12.40625 -10.42875,22.37625 -22.9775,22.18 -12.175,-0.19 -22.01125,-10.31875 -21.92,-22.57125 z M 37.9495,1136.1373 c -12.620625,0.149 -22.84375,-9.7139 -22.984375,-22.1748 -0.13775,-12.1038 10.57425,-22.8263 22.691375,-22.7138 12.080625,0.11 22.065375,10.225 22.13375,22.4212 0.06988,12.3736 -9.6025,22.3239 -21.84075,22.4674 z m 1241.5883,-54.3974 c -12.925,-8.0412 -30.305,-7.1912 -42.1725,2.4488 -3.8488,3.125 -6.3063,2.825 -10.2225,0.5387 -32.3625,-18.8912 -64.8575,-37.5562 -97.31,-56.295 -14.9563,-8.6375 -29.8725,-17.34 -45.0313,-26.0275 -2.1562,-1.235 -3.5625,-2.79745 -2.8162,-5.9112 3.25,-13.57 0.32,-25.80125 -9.4663,-36.5225 -0.9537,-1.045 -1.0875,-3.06875 -1.145,-4.655 -0.2287,-6.24125 -0.37,-12.48875 -0.3712,-18.735 -0.019,-131.87375 -0.1563,-263.74875 0.1537,-395.6225 0.042,-17.89625 -6.49,-29.8575 -22.3037,-38.92125 C 931.089,434.5362 813.63025,366.50245 696.1115,298.5762 c -2.61125,-1.50875 -6.0225,-3.22125 -7.01875,-5.66875 -4.9425,-12.14375 -13.40625,-19.95 -25.2575,-23.725 -2.71375,-0.86375 -4.245,-1.31875 -4.245,-5.17375 0,-62.08375 0.0175,-122.79 -0.11625,-184.872497 -0.007,-3.8175 1.6625,-4.7525 4.8225,-5.765 18.66875,-5.98875 29.66375,-24.405 25.9125,-42.96 -3.70875,-18.3425 -19.44125,-30.88625028 -38.1225,-30.39375028 -17.925,0.4725 -33.0325,13.70750028 -35.97125,31.51125028 -2.97875,18.04625 7.695,35.765 25.465,41.60125 3.6825,1.21 5.38875,2.4425 5.37875,6.68875 -0.14375,61.041247 -0.145,122.082497 0.006,183.123747 0.01,4.18875 -1.53375,5.71625 -5.24875,6.81625 -8.72875,2.58625 -15.1325,8.275 -20.355,15.69375 -2.27875,3.2375 -5.3375,6.345 -8.735,8.3125 -120.7225,69.875 -241.45625,139.7275 -362.40875,209.20125 -14.74125,8.46625 -20.86125,20.03875 -20.84625,36.6025 0.12625,138.12375 -0.005,276.24625 -0.125,414.37 -0.001,2.37625 -0.0538,5.42375 -1.415,7.02375 -9.375,11.02125 -11.505,23.195 -8.165,36.6175 0.60875,2.44495 0.36125,4.52745 -2.1675,5.97625 -49.19125,28.1725 -97.99487,56.6587 -146.818125,84.7475 -2.605375,1.4987 -5.409625,0.025 -6.497,-0.8238 -17.59475,-13.7225 -35.46775,-14.7087 -50.145,-2.9137 -14.1929225,11.405 -18.1787625,31.516 -9.4028875,47.45 8.7700125,15.9223 27.8930125,23.316 45.1083875,17.44 17.851625,-6.0928 26.633375,-21.6402 24.55025,-43.3613 -0.119625,-1.2462 -0.437875,-4.065 2.795,-5.9387 48.955625,-28.375 98.408125,-56.81 147.353125,-85.2038 3.055,-1.7712 4.9475,-1.5187 7.61875,0.7313 8.05875,6.7875 17.60375,9.4987 27.975,7.9575 4.675,-0.695 8.345,0.3137 12.29375,2.5962 119.13375,68.8775 238.3425,137.625 357.45125,206.5449 13.96875,8.084 27.2175,7.9815 41.12375,-0.061 119.48125,-69.105 239.02875,-138.0976 358.6525,-206.9601 2.9062,-1.6738 6.9712,-2.2813 10.3687,-1.9763 11.1188,0.9963 21.37,-0.9312 29.6926,-8.5362 3.6113,-3.3 5.9737,-2.7075 9.6262,-0.5888 46.8187,27.165 93.7675,54.1013 140.59,81.26 4.6075,2.6725 4.4675,6.3913 4.1037,7.7813 -7.3137,28.0226 17.1825,53.4762 44.9488,46.7022 14.4125,-3.5185 26.3625,-15.9521 28.075,-29.4975 2.1,-16.5285 -2.875,-30.106 -17.425,-39.166"
       inkscape:connector-curvature="0"
       style="fill:#ffffff" />
    <path
       id="path3476"
       d="m 771.0465,774.07745 c 29.395,0 57.825,0 86.97875,0 0,-2.8075 0,-5.2375 0,-7.66875 10e-4,-39.9875 -0.0438,-79.975 0.0225,-119.96125 0.0312,-18.10875 11.48125,-27.0325 29.17625,-22.9875 8.18375,1.87125 13.095,7.0325 14.7225,15.125 0.69,3.43625 0.77625,7.03625 0.78,10.56125 0.0512,39.57125 0.075,79.14125 -0.03,118.7125 -0.0125,4.25625 0.44625,6.54875 5.70625,7.2675 10.85875,1.4825 16.26,9.2925 16.27,21.555 0.0113,12.3225 -5.41375,19.7 -16.10875,21.85875 -1.60875,0.3225 -3.24875,0.48875 -5.47875,0.81625 -0.11375,2.58875 -0.31,5.0025 -0.3125,7.4175 -0.0225,26.6575 0.015,53.31625 -0.0488,79.97375 -0.01,3.73375 -0.1525,7.52875 -0.81875,11.18875 -1.25625,6.91125 -5.1925,12.2625 -12.2375,13.40875 -6.02,0.98 -12.5125,1.23375 -18.4475,0.055 -9.01125,-1.79 -13.0825,-8.61375 -13.13375,-20.0325 -0.12625,-28.11625 -0.0538,-56.23125 -0.0612,-84.3475 -10e-4,-2.27875 0,-4.55875 0,-7.805 -43.88125,0 -87.44625,0 -131.6375,0 0,-3.21875 0,-5.47125 0,-7.7225 0,-66.85375 -10e-4,-133.70875 10e-4,-200.56125 0.001,-1.66625 -0.0275,-3.335 0.0662,-4.99625 0.82125,-14.54875 8.5025,-21.38875 23.665,-21.10375 13.25,0.2475 20.84375,7.955 20.8725,21.93 0.11,53.1075 0.05,106.215 0.0537,159.32375 0,2.465 0,4.93125 0,7.9925"
       inkscape:connector-curvature="0"
       style="fill:#ffffff" />
    <path
       id="path3478"
       d="m 533.89525,932.39495 c -17.05875,0 -31.10375,0.15 -48.05125,-1.225 -18.48125,-1.5 -32.64625,-11.85125 -42.74375,-27.28875 -4.1975,-6.41875 -7.73625,-13.305 -11.17125,-20.18 -12.74,-25.5 -25.22875,-51.1275 -37.9675,-76.6275 -15.99,-32.0075 -16.17375,-63.86375 0.0237,-95.89875 14.46,-28.5975 28.535,-57.3875 42.88125,-86.0425 9.6625,-19.29875 23.44875,-33.8625 45.59125,-38.29625 4.87875,-0.97625 9.8825,-1.83 14.835,-1.8625 28.1225,-0.19375 56.24875,-0.2225 84.3725,-0.0925 12.275,0.0575 20.21625,7.77375 21.29,20.02125 1.08375,12.35875 -5.8825,21.82125 -17.8325,23.96 -2.84625,0.51125 -5.795,0.60625 -8.69625,0.61375 -24.79125,0.0588 -49.58875,0.39 -74.37125,-0.0763 -12.3925,-0.2325 -20.275,4.70875 -25.65625,15.79 -13.63125,28.07375 -27.71,55.93 -41.78875,83.7825 -10.22875,20.23625 -10.3125,39.885 0.39875,60.28625 13.73125,26.15 26.67875,52.7375 39.105,79.535 6.32875,13.64875 15.60625,19.78625 30.6925,19.4225 24.98375,-0.60375 49.995,-0.28125 74.99375,-0.0813 16.93125,0.13625 26.17,11.9675 22.45875,28.2125 -2.19,9.58 -9.6925,15.90875 -19.63375,16.01875 -15.20625,0.16625 -45.62375,0.0438 -45.62375,0.0438 l -3.10625,-0.015"
       inkscape:connector-curvature="0"
       style="fill:#ffffff" />
  </g>
</svg>
