<?xml version="1.0" encoding="UTF-8" standalone="no"?>
<svg
   xmlns:ns3="http://ns.adobe.com/AdobeIllustrator/10.0/"
   xmlns:dc="http://purl.org/dc/elements/1.1/"
   xmlns:cc="http://creativecommons.org/ns#"
   xmlns:rdf="http://www.w3.org/1999/02/22-rdf-syntax-ns#"
   xmlns:svg="http://www.w3.org/2000/svg"
   xmlns="http://www.w3.org/2000/svg"
   xmlns:sodipodi="http://sodipodi.sourceforge.net/DTD/sodipodi-0.dtd"
   xmlns:inkscape="http://www.inkscape.org/namespaces/inkscape"
   id="svg2"
   height="1080"
   width="1920"
   version="1.1"
   inkscape:version="0.92.0 r"
   sodipodi:docname="postroll.svg">
  <defs
     id="defs72" />
  <sodipodi:namedview
     pagecolor="#ffffff"
     bordercolor="#666666"
     borderopacity="1"
     objecttolerance="10"
     gridtolerance="10"
     guidetolerance="10"
     inkscape:pageopacity="0"
     inkscape:pageshadow="2"
     inkscape:window-width="1920"
     inkscape:window-height="1016"
     id="namedview70"
     showgrid="false"
     inkscape:zoom="0.5"
     inkscape:cx="1013.294"
     inkscape:cy="540.02691"
     inkscape:window-x="0"
     inkscape:window-y="27"
     inkscape:window-maximized="1"
     inkscape:current-layer="g3541"
     showguides="true"
     inkscape:guide-bbox="true" />
  <metadata
     id="metadata24">
    <rdf:RDF>
      <cc:Work
         rdf:about="">
        <dc:format>image/svg+xml</dc:format>
        <dc:type
           rdf:resource="http://purl.org/dc/dcmitype/StillImage" />
        <dc:title />
      </cc:Work>
    </rdf:RDF>
  </metadata>
  <rect
     y="0"
     x="0"
     height="1080"
     width="1920"
     id="rect3348"
     style="opacity:1;fill:#000000;fill-opacity:1;stroke-width:1.00000012" />
  <g
     id="g3472"
     style="fill:#ffffff"
     transform="matrix(0.47061827,0,0,0.47061827,44.500219,161.06493)">
    <path
       id="path3474"
       d="m 1344.2537,1211.8839 c -13.4214,0.066 -24.1934,-10.6348 -24.104,-23.9507 0.086,-12.8493 10.928,-23.7866 23.7173,-23.9319 13.0533,-0.1494 24.04,10.9506 23.9733,24.2093 -0.053,13.164 -10.4666,23.6067 -23.5866,23.6733 z m -229.0361,-135.9027 c -13.1627,-0.042 -23.6466,-10.4693 -23.7053,-23.5746 -0.06,-13.2933 10.884,-24.368 23.9693,-24.2587 12.7107,0.108 23.768,11.152 23.8987,23.8707 0.1347,13.14 -10.8226,24.0053 -24.1627,23.9626 z m -39.8546,-28.0106 c -0.3973,2.5493 -2.3147,5.7507 -4.4841,7.0067 -124.32797,71.9946 -248.76263,143.8008 -373.1293,215.7281 -3.16533,1.829 -5.40133,1.6129 -8.42133,-0.1324 -123.99467,-71.6797 -248.044,-143.2677 -371.98934,-215.0344 -2.17733,-1.26 -4.14133,-4.436 -4.52933,-6.976 -1.844,-12.0427 -7.28533,-21.6373 -16.94267,-29.1653 -2.15066,-1.676 -4.00133,-5.2494 -4.00533,-7.9507 -0.19067,-142.87999 -0.14667,-285.75999 -0.268,-428.63865 -0.004,-4.36134 1.332,-6.672 5.12533,-8.85867 123.512,-71.18533 246.956,-142.488 370.35334,-213.872 3.46933,-2.00667 5.9,-2.16667 9.49466,-0.01 12.09067,7.26133 24.89467,7.708 37.59067,1.71333 3.70667,-1.74933 6.232,-1.55333 9.67333,0.43867 122.05734,70.596 244.16534,141.10533 366.33867,211.50133 3.9627,2.28267 5.4453,4.70667 5.4347,9.32934 -0.1574,71.328 -0.1094,142.65733 -0.1094,213.98533 0,71.10667 -0.036,142.21333 0.084,213.31862 0.011,4.5374 -0.8307,7.652 -4.8414,10.5654 -9.0533,6.5746 -13.648,15.9866 -15.3746,27.0506 z m -802.48407,28.0227 c -13.26266,0.1056 -23.872,-10.112 -24.05466,-23.168 -0.18534,-13.4627 10.25733,-24.412 23.52266,-24.6614 12.81334,-0.2413 24.36267,11.228 24.312,24.1414 -0.0494,12.9146 -10.76,23.584 -23.78,23.688 z m 424.08,-774.32269 c 13.168,0.0627 23.98534,11.14267 23.81867,24.39467 -0.164,12.96267 -10.86667,23.39867 -23.972,23.37467 -13.02533,-0.024 -23.768,-10.596 -23.89733,-23.52 -0.13334,-13.09334 10.992,-24.30934 24.05066,-24.24934 z M 672.8656,39.729283 c 0.0987,-12.934666 10.884,-23.726666 23.792,-23.802666 13.104,-0.07867 24.20667,11.08 24.09867,24.22 -0.108,13.233333 -11.124,23.868 -24.50934,23.658666 -12.98666,-0.202666 -23.47866,-11.006666 -23.38133,-24.076 z M 40.479467,1211.8798 c -13.462,0.1589 -24.366667,-10.3615 -24.516667,-23.6531 -0.146933,-12.9108 11.2792,-24.3481 24.204133,-24.2281 12.886,0.1173 23.5364,10.9067 23.609334,23.916 0.07454,13.1985 -10.242667,23.8121 -23.2968,23.9652 z M 1364.8403,1153.8559 c -13.7866,-8.5773 -32.3253,-7.6706 -44.984,2.612 -4.1054,3.3334 -6.7267,3.0134 -10.904,0.5747 -34.52,-20.1507 -69.1813,-40.06 -103.7973,-60.048 -15.9534,-9.2134 -31.864,-18.496 -48.0334,-27.7627 -2.2999,-1.3173 -3.8,-2.984 -3.0039,-6.3053 3.4666,-14.4747 0.3413,-27.5213 -10.0974,-38.9573 -1.0173,-1.1147 -1.16,-3.2734 -1.2214,-4.9654 -0.2439,-6.6573 -0.3946,-13.3213 -0.3959,-19.98395 -0.02,-140.66534 -0.1667,-281.332 0.1639,-421.99734 0.045,-19.08933 -6.9226,-31.848 -23.7906,-41.516 C 993.1616,463.50528 867.87227,390.93595 742.51893,318.48128 c -2.78533,-1.60933 -6.424,-3.436 -7.48666,-6.04667 -5.272,-12.95333 -14.3,-21.28 -26.94134,-25.30666 -2.89466,-0.92134 -4.528,-1.40667 -4.528,-5.51867 0,-66.22267 0.0187,-130.976 -0.124,-197.19733 -0.007,-4.072 1.77334,-5.069333 5.144,-6.149333 19.91334,-6.388 31.64134,-26.032 27.64,-45.824 -3.956,-19.565334 -20.73733,-32.9453341 -40.664,-32.42000077 -19.12,0.504 -35.23466,14.62133377 -38.36933,33.61200077 -3.17733,19.249333 8.208,38.149333 27.16267,44.374666 3.928,1.290667 5.748,2.605334 5.73733,7.134667 -0.15333,65.11066 -0.15467,130.22133 0.006,195.332 0.0107,4.468 -1.636,6.09733 -5.59867,7.27066 -9.31066,2.75867 -16.14133,8.82667 -21.712,16.74 -2.43066,3.45334 -5.69333,6.768 -9.31733,8.86667 -128.77067,74.53333 -257.55333,149.04267 -386.56933,223.148 -15.724,9.03067 -22.252,21.37467 -22.236,39.04267 0.13466,147.332 -0.005,294.66266 -0.13334,441.99465 -0.001,2.5347 -0.0574,5.7853 -1.50933,7.492 -10,11.756 -12.272,24.7413 -8.70933,39.0587 0.64933,2.6079 0.38533,4.8293 -2.312,6.3746 -52.47067,30.0507 -104.52786,60.436 -156.606003,90.3974 -2.779067,1.5986 -5.770267,0.027 -6.930134,-0.8787 -18.767733,-14.6374 -37.832266,-15.6893 -53.488,-3.108 -15.139117,12.1653 -19.3906797,33.6171 -10.0297463,50.6133 9.3546803,16.9838 29.7525463,24.8704 48.1156133,18.6027 19.041733,-6.499 28.408933,-23.0829 26.186933,-46.252 -0.1276,-1.3293 -0.467066,-4.336 2.981334,-6.3347 52.219333,-30.2666 104.968663,-60.5973 157.176663,-90.884 3.25867,-1.8893 5.27734,-1.62 8.12667,0.78 8.596,7.24 18.77733,10.132 29.84,8.488 4.98667,-0.7413 8.90133,0.3347 13.11333,2.7693 127.076,73.4694 254.232,146.8 381.28134,220.3146 14.9,8.6229 29.032,8.5136 43.86533,-0.065 127.44667,-73.712 254.964,-147.3041 382.5627,-220.7574 3.0999,-1.7854 7.4359,-2.4334 11.0599,-2.1081 11.8601,1.0627 22.7947,-0.9933 31.6721,-9.1053 3.8521,-3.52 6.372,-2.888 10.268,-0.628 49.9399,28.976 100.0186,57.708 149.9626,86.6773 4.9147,2.8507 4.7654,6.8174 4.3773,8.3001 -7.8013,29.8908 18.328,57.0413 47.9454,49.8157 15.3733,-3.7531 28.12,-17.0156 29.9467,-31.464 2.24,-17.6304 -3.0667,-32.1131 -18.5867,-41.7771"
       inkscape:connector-curvature="0"
       style="fill:#ffffff;stroke-width:1.06666672" />
    <path
       id="path3476"
       d="m 822.4496,825.68261 c 31.35467,0 61.68,0 92.77733,0 0,-2.99466 0,-5.58666 0,-8.18 10e-4,-42.65333 -0.0467,-85.30666 0.024,-127.95866 0.0333,-19.316 12.24667,-28.83467 31.12134,-24.52 8.72933,1.996 13.968,7.50133 15.704,16.13333 0.736,3.66533 0.828,7.50533 0.832,11.26533 0.0546,42.20934 0.08,84.41734 -0.032,126.62667 -0.0133,4.54 0.476,6.98533 6.08666,7.752 11.58267,1.58133 17.344,9.912 17.35467,22.992 0.0121,13.144 -5.77467,21.01333 -17.18267,23.316 -1.716,0.344 -3.46533,0.52133 -5.844,0.87067 -0.12133,2.76133 -0.33066,5.336 -0.33333,7.912 -0.024,28.43466 0.016,56.87066 -0.0521,85.30533 -0.0107,3.98267 -0.16267,8.03067 -0.87334,11.93467 -1.34,7.372 -5.53866,13.08 -13.05333,14.30266 -6.42133,1.04534 -13.34667,1.316 -19.67733,0.0587 -9.612,-1.90933 -13.95467,-9.188 -14.00934,-21.368 -0.13466,-29.99067 -0.0574,-59.98 -0.0653,-89.97067 -10e-4,-2.43066 0,-4.86266 0,-8.32533 -46.80666,0 -93.276,0 -140.41333,0 0,-3.43333 0,-5.836 0,-8.23733 0,-71.31067 -10e-4,-142.62267 10e-4,-213.932 10e-4,-1.77734 -0.0293,-3.55734 0.0706,-5.32934 0.876,-15.51866 9.06933,-22.81466 25.24267,-22.51066 14.13333,0.264 22.23333,8.48533 22.264,23.392 0.11733,56.648 0.0533,113.296 0.0573,169.94533 0,2.62933 0,5.26 0,8.52533"
       inkscape:connector-curvature="0"
       style="fill:#ffffff;stroke-width:1.06666672" />
    <path
       id="path3478"
       d="m 569.48827,994.55461 c -18.196,0 -33.17734,0.16 -51.25467,-1.30666 -19.71333,-1.6 -34.82267,-12.64134 -45.59333,-29.108 -4.47734,-6.84667 -8.252,-14.192 -11.916,-21.52534 -13.58934,-27.2 -26.91067,-54.536 -40.49867,-81.736 -17.056,-34.14133 -17.252,-68.12133 0.0253,-102.292 15.424,-30.504 30.43733,-61.21333 45.74,-91.77866 10.30667,-20.58534 25.012,-36.12 48.63067,-40.84934 5.204,-1.04133 10.54133,-1.952 15.824,-1.98666 29.99733,-0.20667 59.99866,-0.23734 89.99733,-0.0987 13.09333,0.0613 21.564,8.292 22.70933,21.356 1.156,13.18267 -6.27466,23.276 -19.02133,25.55733 -3.036,0.54534 -6.18133,0.64667 -9.276,0.65467 -26.444,0.0627 -52.89467,0.416 -79.32933,-0.0814 -13.21867,-0.248 -21.62667,5.02267 -27.36667,16.84267 -14.54,29.94533 -29.55733,59.65867 -44.57467,89.368 -10.91066,21.58533 -11,42.544 0.42534,64.30533 14.64666,27.89334 28.45733,56.25334 41.712,84.83734 6.75066,14.55866 16.64666,21.10533 32.73866,20.71733 26.64934,-0.644 53.328,-0.3 79.99334,-0.0867 18.06,0.14533 27.91466,12.76533 23.956,30.09333 -2.336,10.21867 -10.33867,16.96934 -20.94267,17.08667 -16.22,0.17733 -48.66533,0.0467 -48.66533,0.0467 l -3.31334,-0.016"
       inkscape:connector-curvature="0"
       style="fill:#ffffff;stroke-width:1.06666672" />
  </g>
  <g
     id="g4017"
     transform="translate(-63.638672,17.107535)">
    <text
       id="text3372"
       y="622.35699"
       x="780.62305"
       style="font-style:normal;font-weight:normal;font-size:48px;line-height:125%;font-family:Sans;letter-spacing:0px;word-spacing:0px;fill:#ffffff;fill-opacity:1;stroke:none;stroke-width:1.06666672px;stroke-linecap:butt;stroke-linejoin:miter;stroke-opacity:1"
       xml:space="preserve"><tspan
         y="622.35699"
         x="780.62305"
         id="tspan3374"
         style="stroke-width:1.06666672px">https://creativecommons.org/licenses/by-sa/4.0/</tspan></text>
    <g
       transform="translate(136.24727,36)"
       id="g3957">
      <path
         inkscape:connector-curvature="0"
         d="m 982.89387,395.67356 c 17.96063,0 33.17033,6.23033 45.63303,18.69098 12.4566,12.38441 18.691,27.55591 18.691,45.51852 0,17.96662 -6.118,33.02175 -18.3499,45.1754 -12.9162,12.6894 -28.2442,19.0341 -45.97413,19.0341 -17.3546,0 -32.4117,-6.30658 -45.1754,-18.91973 -12.6111,-12.61115 -18.9197,-27.70439 -18.9197,-45.28776 0,-17.50311 6.3086,-32.67661 18.9197,-45.51851 12.4587,-12.46267 27.5179,-18.693 45.1754,-18.693 z m 0.2288,11.58179 c -14.5996,0 -26.944,5.16083 -37.0349,15.48051 -10.4741,10.62667 -15.7092,23.00907 -15.7092,37.1472 0,14.29665 5.1969,26.6008 15.5908,36.92046 10.396,10.39793 22.7784,15.59287 37.1492,15.59287 14.2927,0 26.75533,-5.23507 37.38013,-15.70724 10.0909,-9.78392 15.1354,-22.05195 15.1354,-36.80609 0,-14.67388 -5.1227,-27.05828 -15.3622,-37.1472 -10.1672,-10.32369 -22.55163,-15.48051 -37.14923,-15.48051 z m -28.6656,43.56815 c 1.2221,-7.87369 4.3924,-13.96958 9.5151,-18.28766 5.1207,-4.3181 11.349,-6.47714 18.689,-6.47714 10.0869,0 18.11713,3.2506 24.07853,9.74379 5.9615,6.4972 8.9432,14.83039 8.9432,24.99555 0,9.86218 -3.0961,18.05893 -9.2843,24.59225 -6.1962,6.53331 -14.21843,9.80398 -24.08253,9.80398 -7.2618,0 -13.5302,-2.1771 -18.8035,-6.53532 -5.2751,-4.35822 -8.4455,-10.54842 -9.517,-18.57461 h 16.1708 c 0.3813,7.79744 5.0826,11.69617 14.104,11.69617 4.5067,0 8.1406,-1.95037 10.8916,-5.84708 2.7549,-3.89672 4.1314,-9.09768 4.1314,-15.59287 0,-6.80421 -1.2621,-11.9811 -3.7823,-15.5367 -2.5242,-3.55359 -6.152,-5.3314 -10.8956,-5.3314 -8.5639,0 -13.3776,3.78235 -14.4471,11.34903 h 4.7013 l -12.7255,12.72753 -12.7275,-12.72753 z"
         id="path167"
         style="fill:#ffffff;stroke-width:2.00654697" />
      <g
         id="g3541"
         style="fill:#ffffff"
         transform="matrix(1.8995722,0,0,1.8995722,1057.1249,377.44356)">
        <path
           id="path3543"
           d="M 100.56747,52.3904 C 97.624533,47.025067 92.6048,44.8896 86.7776,44.8896 c -8.481067,0 -15.232,6 -15.232,16.155733 0,10.327467 6.346667,16.154667 15.52,16.154667 5.8848,0 10.904533,-3.230933 13.6736,-8.135467 L 94.277333,65.776 c -1.4432,3.4624 -3.6352,4.501333 -6.404266,4.501333 -4.789334,0 -6.981334,-3.9808 -6.981334,-9.230933 0,-5.2512 1.8464,-9.232 6.981334,-9.232 1.384533,0 4.154666,0.749867 5.7696,4.212267 z"
           ns3:knockout="Off"
           style="clip-rule:evenodd;fill:#ffffff;fill-rule:evenodd;stroke-width:113.06666565px;stroke-opacity:0"
           inkscape:connector-curvature="0" />
        <path
           id="path3545"
           d="m 117.0624,51.813333 c 5.13493,0 7.328,3.9808 7.328,8.885334 0,5.5968 -2.19307,9.5776 -7.328,9.5776 -5.13493,0 -7.32693,-3.9808 -7.32693,-9.230934 0,-5.250133 2.192,-9.232 7.32693,-9.232 z m 0,-6.923733 c -9.5776,0 -16.32747,5.8272 -16.32747,16.155733 0,10.327467 6.74987,16.154667 16.32747,16.154667 9.5776,0 16.32853,-5.8272 16.32853,-16.154667 0,-10.327466 -6.75093,-16.155733 -16.32853,-16.155733 z"
           ns3:knockout="Off"
           style="clip-rule:evenodd;fill:#ffffff;fill-rule:evenodd;stroke-width:113.06666565px;stroke-opacity:0"
           inkscape:connector-curvature="0" />
        <path
           id="path3547"
           d="m 135.2352,76.391467 h 9.00053 V 57.294933 c 0,-2.769066 1.15414,-5.134933 4.78827,-5.134933 3.4624,0 4.38507,2.0192 4.38507,5.019733 v 19.2128 h 9.00053 v -18.8672 c 0,-3.115733 1.55733,-5.365333 4.55787,-5.365333 3.40373,0 4.61546,1.9616 4.61546,6.289067 v 17.9424 h 9.00054 v -23.424 c 0,-7.038934 -6.46187,-8.077867 -9.4624,-8.077867 -3.5776,0 -6.92374,1.096533 -9.8656,4.096 -2.02027,-2.711467 -4.61547,-4.096 -8.13547,-4.096 -2.76907,0 -6.57707,0.807467 -8.88533,3.52 v -2.711467 h -9.00054 v 30.693334 z"
           ns3:knockout="Off"
           style="clip-rule:evenodd;fill:#ffffff;fill-rule:evenodd;stroke-width:113.06666565px;stroke-opacity:0"
           inkscape:connector-curvature="0" />
        <path
           id="path3549"
           d="M 183.46347,76.391467 H 192.464 V 57.294933 c 0,-2.769066 1.15413,-5.134933 4.78827,-5.134933 3.4624,0 4.38506,2.0192 4.38506,5.019733 v 19.2128 h 9.00054 v -18.8672 c 0,-3.115733 1.55733,-5.365333 4.5568,-5.365333 3.40373,0 4.61653,1.9616 4.61653,6.289067 v 17.9424 h 9.00053 v -23.424 c 0,-7.038934 -6.46293,-8.077867 -9.4624,-8.077867 -3.5776,0 -6.92266,1.096533 -9.8656,4.096 -2.0192,-2.711467 -4.61546,-4.096 -8.13546,-4.096 -2.76907,0 -6.57707,0.807467 -8.88534,3.52 v -2.711467 h -9.00053 v 30.693334 z"
           ns3:knockout="Off"
           style="clip-rule:evenodd;fill:#ffffff;fill-rule:evenodd;stroke-width:113.06666565px;stroke-opacity:0"
           inkscape:connector-curvature="0" />
        <path
           id="path3551"
           d="m 246.98027,51.813333 c 5.13386,0 7.32693,3.9808 7.32693,8.885334 0,5.5968 -2.19307,9.5776 -7.32693,9.5776 -5.13494,0 -7.328,-3.9808 -7.328,-9.230934 0,-5.250133 2.19306,-9.232 7.328,-9.232 z m 0,-6.923733 c -9.5776,0 -16.32854,5.8272 -16.32854,16.155733 0,10.327467 6.74987,16.154667 16.32854,16.154667 9.5776,0 16.32853,-5.8272 16.32853,-16.154667 0,-10.327466 -6.75093,-16.155733 -16.32853,-16.155733 z"
           ns3:knockout="Off"
           style="clip-rule:evenodd;fill:#ffffff;fill-rule:evenodd;stroke-width:113.06666565px;stroke-opacity:0"
           inkscape:connector-curvature="0" />
        <path
           id="path3553"
           d="m 265.73013,76.391467 h 9.00054 V 57.294933 c 0,-2.769066 1.15413,-5.134933 4.78933,-5.134933 3.46133,0 4.384,2.0192 4.384,5.019733 v 19.2128 h 9.00053 v -22.6752 c 0,-4.615466 -2.02026,-8.827733 -9.2896,-8.827733 -2.76906,0 -6.57706,0.807467 -8.88533,3.52 v -2.711467 h -9.00053 v 30.693334 z"
           ns3:knockout="Off"
           style="clip-rule:evenodd;fill:#ffffff;fill-rule:evenodd;stroke-width:113.06666565px;stroke-opacity:0"
           inkscape:connector-curvature="0" />
        <path
           id="path3555"
           d="m 322.95893,49.333333 c -4.15466,-2.769066 -8.82666,-4.442666 -13.5584,-4.442666 -6.23253,0 -12.9824,3.000533 -12.9824,10.731733 0,10.904533 18.17387,7.096533 18.17387,11.885867 0,2.770133 -3.40267,3.115733 -4.90453,3.115733 -4.096,0 -6.92267,-1.672533 -9.6928,-4.327467 l -5.5968,4.845867 c 4.50133,4.154667 8.30826,6.058667 15.0016,6.058667 6.6912,0 13.8464,-2.885334 13.8464,-10.962134 0,-11.4816 -18.17387,-7.154133 -18.17387,-12.404266 0,-1.557334 1.61493,-2.3648 3.86453,-2.3648 2.82774,0 6.69334,1.154133 8.48107,3.288533 z"
           ns3:knockout="Off"
           style="clip-rule:evenodd;fill:#ffffff;fill-rule:evenodd;stroke-width:113.06666565px;stroke-opacity:0"
           inkscape:connector-curvature="0" />
        <path
           id="path3557"
           d="M 100.56747,17.0784 C 97.624533,11.713067 92.6048,9.5776 86.7776,9.5776 c -8.481067,0 -15.232,6 -15.232,16.154667 0,10.327466 6.346667,16.155733 15.52,16.155733 5.8848,0 10.904533,-3.230933 13.6736,-8.135467 L 94.277333,30.464 c -1.4432,3.4624 -3.6352,4.500267 -6.404266,4.500267 -4.789334,0 -6.981334,-3.9808 -6.981334,-9.232 0,-5.250134 1.8464,-9.230934 6.981334,-9.230934 1.384533,0 4.154666,0.749867 5.7696,4.212267 z"
           ns3:knockout="Off"
           style="clip-rule:evenodd;fill:#ffffff;fill-rule:evenodd;stroke-width:113.06666565px;stroke-opacity:0"
           inkscape:connector-curvature="0" />
        <path
           id="path3559"
           d="m 102.76267,41.079467 h 9.00053 V 23.3088 c 0,-3.403733 2.1344,-4.327467 7.5008,-4.962133 l 0.98027,-0.1152 -0.0576,-7.9616 c -3.17334,0.231466 -6.46187,1.384533 -8.42347,3.230933 v -3.115733 h -9.00053 z"
           ns3:knockout="Off"
           style="clip-rule:evenodd;fill:#ffffff;fill-rule:evenodd;stroke-width:113.06666565px;stroke-opacity:0"
           inkscape:connector-curvature="0" />
        <path
           id="path3561"
           d="m 150.81173,27.578667 c -0.0576,-9.4624 -3.8656,-18.001067 -15.0592,-18.001067 -9.3472,0 -15.0592,6.231467 -15.0592,17.0784 0,8.653867 5.5392,15.232 15.0592,15.232 6.86614,0 11.7696,-2.711467 14.88534,-8.481067 l -6.75094,-3.52 c -2.59626,3.6928 -4.15466,5.422934 -7.5008,5.422934 -2.88426,0 -6.63466,-1.8464 -6.69226,-7.7312 z m -21.232,-5.538134 c 0.4032,-4.039466 3.51894,-5.8848 6.1152,-5.8848 2.59627,0 5.8272,1.384534 6.1152,5.8848 z"
           ns3:knockout="Off"
           style="clip-rule:evenodd;fill:#ffffff;fill-rule:evenodd;stroke-width:113.06666565px;stroke-opacity:0"
           inkscape:connector-curvature="0" />
        <path
           id="path3563"
           d="m 171.45813,28.270933 c 0,4.673067 -2.65386,7.038934 -6.17386,7.038934 -2.19307,0 -4.21227,-1.038934 -4.21227,-3.461334 0,-2.481066 2.0768,-3.346133 4.32747,-3.9808 l 6.05866,-1.7312 z m 8.65387,-9.808 C 180.0544,11.5392 174.80427,9.5776 166.4384,9.5776 c -4.15467,0 -12.34667,0.807467 -12.63573,9.6352 h 8.65493 c 0.46187,-3.058133 1.84533,-4.096 4.73067,-4.096 2.42346,0 4.26986,0.980267 4.26986,3.288533 V 20.944 l -3.28853,0.461867 c -9.808,1.384533 -15.75147,3.9808 -15.75147,11.3664 0,5.8848 4.38507,9.115733 10.26987,9.115733 3.23093,0 7.7312,-1.557333 9.23093,-3.9808 h 0.1152 c 0.0576,1.038933 0.23147,2.1344 0.57707,3.173333 h 8.30827 c -0.74987,-1.904 -0.80747,-4.2688 -0.80747,-6.404266 z"
           ns3:knockout="Off"
           style="clip-rule:evenodd;fill:#ffffff;fill-rule:evenodd;stroke-width:113.06666565px;stroke-opacity:0"
           inkscape:connector-curvature="0" />
        <path
           id="path3565"
           d="m 201.27893,10.962133 h -5.3664 V 2.0768 H 186.912 v 8.885333 h -4.384 v 5.538134 h 4.384 V 32.656 c 0,4.442667 1.09653,9.230933 8.7712,9.230933 1.9616,0 4.61547,-0.2304 5.7696,-0.346666 v -7.096534 c -0.46293,0.0576 -1.7312,0.1728 -2.71147,0.1728 -1.61706,0 -2.82773,-0.634666 -2.82773,-3.058133 V 16.501333 h 5.3664 v -5.5392 z"
           ns3:knockout="Off"
           style="clip-rule:evenodd;fill:#ffffff;fill-rule:evenodd;stroke-width:113.06666565px;stroke-opacity:0"
           inkscape:connector-curvature="0" />
        <path
           id="path3567"
           d="m 204.66773,10.385067 v 30.6944 h 9.00054 v -30.6944 z m 9.0016,-3.4613337 V 0 h -9.00053 v 6.9237333 z"
           ns3:knockout="Off"
           style="clip-rule:evenodd;fill:#ffffff;fill-rule:evenodd;stroke-width:113.06666565px;stroke-opacity:0"
           inkscape:connector-curvature="0" />
        <polygon
           id="polygon3569"
           points="211.67,38.512 220.162,38.512 230.007,9.736 221.028,9.736 216.051,30.074 215.944,30.074 210.966,9.736 201.934,9.736 "
           ns3:knockout="Off"
           style="clip-rule:evenodd;fill:#ffffff;fill-rule:evenodd"
           transform="scale(1.0666667)" />
        <path
           id="path3571"
           d="M 274.4064,27.578667 C 274.3488,18.116267 270.5408,9.5776 259.34827,9.5776 c -9.34827,0 -15.05814,6.231467 -15.05814,17.0784 0,8.653867 5.53707,15.232 15.05814,15.232 6.86613,0 11.7696,-2.711467 14.88533,-8.481067 l -6.75093,-3.52 c -2.59627,3.6928 -4.15467,5.422934 -7.49974,5.422934 -2.88426,0 -6.63573,-1.8464 -6.69226,-7.7312 z m -21.232,-5.538134 c 0.40427,-4.039466 3.51893,-5.8848 6.1152,-5.8848 2.59627,0 5.82827,1.384534 6.11627,5.8848 z"
           ns3:knockout="Off"
           style="clip-rule:evenodd;fill:#ffffff;fill-rule:evenodd;stroke-width:113.06666565px;stroke-opacity:0"
           inkscape:connector-curvature="0" />
        <g
           id="g3573"
           style="fill:#ffffff">
          <path
             id="path3575"
             d="m 33.7088,9.0613333 c -9.2608,0 -17.410133,3.4271997 -23.707733,9.8165337 C 3.5189333,25.453867 0,33.973333 0,42.864 0,51.8464 3.4261333,60.181333 9.9093333,66.664533 16.391467,73.146667 24.8192,76.6656 33.7088,76.6656 c 8.8896,0 17.502933,-3.518933 24.170667,-10.093867 C 64.177067,60.366933 67.5104,52.1248 67.5104,42.864 67.5104,33.696 64.177067,25.361067 57.786667,18.970667 51.304533,12.488533 42.9696,9.0613333 33.7088,9.0613333 Z M 33.8016,15.1744 c 7.5936,0 14.354133,2.8704 19.633067,8.149333 C 58.619733,28.509867 61.3984,35.3632 61.3984,42.864 c 0,7.5936 -2.685867,14.261333 -7.872,19.355733 -5.464533,5.370667 -12.5024,8.242134 -19.725867,8.242134 -7.316266,0 -14.1696,-2.8704 -19.447466,-8.149334 -5.2789337,-5.28 -8.2421337,-12.225066 -8.2421337,-19.448533 0,-7.316267 2.9632,-14.261333 8.2421337,-19.633067 C 19.5392,17.953067 26.208,15.1744 33.8016,15.1744 Z"
             ns3:knockout="Off"
             style="clip-rule:evenodd;fill:#ffffff;fill-rule:evenodd;stroke-width:113.06666565px;stroke-opacity:0"
             inkscape:connector-curvature="0" />
          <path
             id="path3577"
             d="m 33.365333,37.246933 c -1.909333,-3.4816 -5.166933,-4.8672 -8.948266,-4.8672 -5.504,0 -9.8848,3.893334 -9.8848,10.484267 0,6.701867 4.1184,10.484267 10.072533,10.484267 3.819733,0 7.076267,-2.097067 8.8736,-5.278934 l -4.194133,-2.1344 c -0.936534,2.2464 -2.3584,2.920534 -4.155734,2.920534 -3.108266,0 -4.530133,-2.583467 -4.530133,-5.9904 0,-3.406934 1.197867,-5.991467 4.530133,-5.991467 0.898134,0 2.695467,0.487467 3.744,2.7328 z"
             ns3:knockout="Off"
             style="clip-rule:evenodd;fill:#ffffff;fill-rule:evenodd;stroke-width:113.06666565px;stroke-opacity:0"
             inkscape:connector-curvature="0" />
          <path
             id="path3579"
             d="m 52.866133,37.246933 c -1.9104,-3.4816 -5.166933,-4.8672 -8.948266,-4.8672 -5.504,0 -9.885867,3.893334 -9.885867,10.484267 0,6.701867 4.119467,10.484267 10.072533,10.484267 3.819734,0 7.076267,-2.097067 8.8736,-5.278934 L 48.784,45.934933 c -0.935467,2.2464 -2.3584,2.920534 -4.155733,2.920534 -3.1072,0 -4.5312,-2.583467 -4.5312,-5.9904 0,-3.406934 1.198933,-5.991467 4.5312,-5.991467 0.898133,0 2.695466,0.487467 3.745066,2.7328 z"
             ns3:knockout="Off"
             style="clip-rule:evenodd;fill:#ffffff;fill-rule:evenodd;stroke-width:113.06666565px;stroke-opacity:0"
             inkscape:connector-curvature="0" />
        </g>
      </g>
      <path
         inkscape:connector-curvature="0"
         id="path3653"
         d="m 844.56754,395.67347 c 18.03484,0 33.24846,6.1902 45.63288,18.5746 12.45665,12.46065 18.69098,27.67228 18.69098,45.63489 0,18.04086 -6.11797,33.05987 -18.34988,45.05902 -12.99439,12.76766 -28.31838,19.15049 -45.97398,19.15049 -17.35463,0 -32.41176,-6.30858 -45.17541,-18.92174 -12.61115,-12.61316 -18.91973,-27.70639 -18.91973,-45.28777 0,-17.57936 6.30858,-32.79099 18.91973,-45.63288 12.38441,-12.38641 27.43953,-18.57661 45.17541,-18.57661 z m 0.22874,11.58179 c -14.59964,0 -26.94391,5.12271 -37.03484,15.36411 -10.47417,10.70292 -15.70925,23.12547 -15.70925,37.2656 0,14.21839 5.19695,26.52655 15.59087,36.91644 10.39592,10.39794 22.77832,15.59289 37.1492,15.59289 14.29264,0 26.7553,-5.23107 37.37997,-15.70726 10.09091,-9.70767 15.13537,-21.97569 15.13537,-36.80609 0,-14.59962 -5.12271,-27.01814 -15.36212,-37.26357 -10.24141,-10.24142 -22.62582,-15.36212 -37.1492,-15.36212 z m 17.20011,36.68971 v 26.25565 h -7.33593 v 31.18575 h -19.95309 v -31.18373 h -7.33595 v -26.25767 c 0,-1.14776 0.40132,-2.12093 1.20193,-2.92356 0.80462,-0.80061 1.7798,-1.20392 2.92353,-1.20392 h 26.37406 c 1.06948,0 2.02661,0.40132 2.86535,1.20392 0.83673,0.80263 1.2601,1.77781 1.2601,2.92356 z m -26.25967,-16.50988 c 0,-6.03569 2.97973,-9.05755 8.94519,-9.05755 5.96546,0 8.94317,3.01785 8.94317,9.05755 0,5.96145 -2.98173,8.94319 -8.94317,8.94319 -5.96146,0 -8.94519,-2.98174 -8.94519,-8.94319 z"
         style="fill:#ffffff;stroke-width:212.69395447px;stroke-opacity:0" />
    </g>
  </g>
</svg>
