<?xml version="1.0" encoding="UTF-8" standalone="no"?>
<svg
   xmlns:dc="http://purl.org/dc/elements/1.1/"
   xmlns:cc="http://creativecommons.org/ns#"
   xmlns:rdf="http://www.w3.org/1999/02/22-rdf-syntax-ns#"
   xmlns:svg="http://www.w3.org/2000/svg"
   xmlns="http://www.w3.org/2000/svg"
   version="1.1"
   id="svg2"
   viewBox="0 0 1920.0001 1080"
   height="1080"
   width="1920">
  <defs
     id="defs4" />
  <metadata
     id="metadata7">
    <rdf:RDF>
      <cc:Work
         rdf:about="">
        <dc:format>image/svg+xml</dc:format>
        <dc:type
           rdf:resource="http://purl.org/dc/dcmitype/StillImage" />
        <dc:title></dc:title>
      </cc:Work>
    </rdf:RDF>
  </metadata>
  <g
     transform="translate(0,27.637408)"
     id="layer1">
    <rect
       y="-27.170731"
       x="0.46675029"
       height="1079.0667"
       width="1919.0667"
       id="rect3336"
       style="opacity:1;fill:#000000;fill-opacity:1;stroke:#000000;stroke-width:0.93350071;stroke-miterlimit:4;stroke-dasharray:none;stroke-opacity:1" />
    <g
       transform="matrix(4.5169731,0,0,4.5169731,-2343.8433,1384.0742)"
       id="g3579">
      <g
         id="g3474"
         transform="translate(635.67812,-300.22114)"
         style="fill:#ffffff">
        <g
           id="g3476"
           style="fill:#ffffff">
          <polygon
             id="polygon3478"
             points="124.209,92.796 124.209,92.796 121.516,92.796 121.516,69.321 100.9,57.382 102.253,55.052 124.209,67.77 "
             style="fill:#ffffff" />
          <polygon
             id="polygon3480"
             points="67.625,92.458 67.625,92.458 64.932,92.458 64.932,67.699 86.084,55.522 87.429,57.856 67.625,69.257 "
             style="fill:#ffffff" />
          <polygon
             id="polygon3482"
             points="94.57,119.14 85.949,114.173 72.743,106.489 74.097,104.16 87.299,111.839 94.573,116.03 114.513,104.561 115.856,106.896 94.57,119.14 "
             style="fill:#ffffff" />
        </g>
        <g
           id="g3484"
           style="fill:#ffffff">
          <polygon
             id="polygon3486"
             points="37.177,119.089 35.833,116.756 58.062,103.956 59.407,106.291 37.177,119.089 "
             style="fill:#ffffff" />
          <polygon
             id="polygon3488"
             points="151.629,119.089 129.4,106.291 130.744,103.956 152.973,116.756 151.629,119.089 "
             style="fill:#ffffff" />
          <polygon
             id="polygon3490"
             points="95.986,44.294 93.291,44.294 93.291,18.427 95.986,18.427 95.986,44.294 "
             style="fill:#ffffff" />
        </g>
        <g
           id="g3492"
           style="fill:#ffffff">
          <g
             id="g3494"
             enable-background="new    "
             style="fill:#ffffff">
            <path
               id="path3496"
               d="m 93.552,0.77 3.292,0 5.966,10.482 0,-10.482 2.927,0 0,15.03 -3.14,0 -6.121,-10.663 0,10.663 -2.924,0 0,-15.03 z"
               style="fill:#ffffff" />
            <path
               id="path3498"
               d="m 120.258,14.465 c -1.137,1.17 -2.779,1.754 -4.929,1.754 -2.146,0 -3.791,-0.583 -4.922,-1.754 -1.524,-1.434 -2.285,-3.501 -2.285,-6.201 0,-2.753 0.761,-4.819 2.285,-6.198 1.131,-1.169 2.776,-1.753 4.922,-1.753 2.149,0 3.792,0.584 4.929,1.753 1.513,1.379 2.27,3.445 2.27,6.198 -0.001,2.699 -0.757,4.767 -2.27,6.201 z m -1.966,-2.285 c 0.731,-0.917 1.096,-2.223 1.096,-3.916 0,-1.685 -0.364,-2.988 -1.096,-3.91 -0.73,-0.92 -1.717,-1.381 -2.963,-1.381 -1.243,0 -2.234,0.459 -2.975,1.375 -0.742,0.919 -1.112,2.224 -1.112,3.916 0,1.693 0.37,2.998 1.112,3.916 0.74,0.917 1.731,1.376 2.975,1.376 1.246,0 2.233,-0.459 2.963,-1.376 z"
               style="fill:#ffffff" />
          </g>
          <g
             id="g3500"
             enable-background="new    "
             style="fill:#ffffff">
            <path
               id="path3502"
               d="m 123.854,19.033 c 0.309,-0.729 1.036,-1.505 2.179,-2.322 0.994,-0.712 1.64,-1.221 1.93,-1.529 0.45,-0.478 0.675,-1.005 0.675,-1.573 0,-0.465 -0.127,-0.851 -0.388,-1.157 -0.254,-0.308 -0.624,-0.462 -1.104,-0.462 -0.657,0 -1.102,0.244 -1.338,0.734 -0.137,0.283 -0.217,0.731 -0.243,1.345 l -2.096,0 c 0.036,-0.934 0.204,-1.687 0.507,-2.261 0.577,-1.095 1.598,-1.643 3.069,-1.643 1.16,0 2.083,0.323 2.77,0.966 0.688,0.641 1.03,1.494 1.03,2.553 0,0.812 -0.242,1.533 -0.728,2.164 -0.317,0.419 -0.841,0.885 -1.569,1.398 l -0.864,0.614 c -0.541,0.383 -0.908,0.659 -1.106,0.833 -0.201,0.169 -0.37,0.369 -0.507,0.598 l 4.789,0 0,1.896 -7.512,0 c 0.02,-0.785 0.189,-1.502 0.506,-2.154 z"
               style="fill:#ffffff" />
          </g>
          <g
             id="g3504"
             enable-background="new    "
             style="fill:#ffffff">
            <path
               id="path3506"
               d="m 153.438,118.723 3.291,0 5.968,10.48 0,-10.48 2.924,0 0,15.029 -3.141,0 -6.118,-10.664 0,10.664 -2.924,0 0,-15.029 z"
               style="fill:#ffffff" />
            <path
               id="path3508"
               d="m 180.142,132.416 c -1.134,1.169 -2.776,1.755 -4.926,1.755 -2.148,0 -3.788,-0.586 -4.925,-1.755 -1.521,-1.436 -2.282,-3.5 -2.282,-6.199 0,-2.753 0.761,-4.82 2.282,-6.199 1.137,-1.17 2.776,-1.753 4.925,-1.753 2.149,0 3.792,0.583 4.926,1.753 1.515,1.379 2.272,3.446 2.272,6.199 0,2.699 -0.758,4.763 -2.272,6.199 z m -1.963,-2.283 c 0.731,-0.919 1.095,-2.224 1.095,-3.916 0,-1.686 -0.363,-2.988 -1.095,-3.91 -0.731,-0.921 -1.72,-1.382 -2.963,-1.382 -1.246,0 -2.234,0.458 -2.978,1.376 -0.74,0.918 -1.109,2.223 -1.109,3.916 0,1.692 0.369,2.997 1.109,3.916 0.743,0.917 1.731,1.376 2.978,1.376 1.243,0 2.231,-0.459 2.963,-1.376 z"
               style="fill:#ffffff" />
          </g>
          <g
             id="g3510"
             enable-background="new    "
             style="fill:#ffffff">
            <path
               id="path3512"
               d="m 183.941,136.984 c 0.308,-0.73 1.036,-1.505 2.182,-2.322 0.991,-0.71 1.637,-1.219 1.927,-1.528 0.45,-0.479 0.672,-1.003 0.672,-1.573 0,-0.463 -0.127,-0.85 -0.385,-1.155 -0.258,-0.309 -0.624,-0.464 -1.104,-0.464 -0.653,0 -1.101,0.246 -1.34,0.735 -0.134,0.281 -0.217,0.731 -0.24,1.346 l -2.099,0 c 0.039,-0.934 0.207,-1.688 0.509,-2.263 0.577,-1.094 1.599,-1.642 3.066,-1.642 1.164,0 2.087,0.323 2.773,0.965 0.688,0.643 1.03,1.495 1.03,2.553 0,0.814 -0.242,1.535 -0.728,2.164 -0.317,0.419 -0.844,0.887 -1.569,1.4 l -0.864,0.612 c -0.542,0.382 -0.911,0.66 -1.109,0.832 -0.199,0.171 -0.367,0.369 -0.504,0.599 l 4.789,0 0,1.897 -7.512,0 c 0.021,-0.786 0.19,-1.504 0.506,-2.156 z"
               style="fill:#ffffff" />
          </g>
          <g
             id="g3514"
             enable-background="new    "
             style="fill:#ffffff">
            <path
               id="path3516"
               d="m 12.687,132.416 c -1.136,1.169 -2.777,1.755 -4.925,1.755 -2.148,0 -3.79,-0.586 -4.923,-1.755 -1.524,-1.436 -2.285,-3.5 -2.285,-6.199 0,-2.753 0.761,-4.82 2.285,-6.199 1.133,-1.17 2.775,-1.753 4.923,-1.753 2.148,0 3.79,0.583 4.925,1.753 1.516,1.379 2.273,3.446 2.273,6.199 0,2.699 -0.758,4.763 -2.273,6.199 z m -1.963,-2.283 c 0.731,-0.919 1.097,-2.224 1.097,-3.916 0,-1.686 -0.366,-2.988 -1.097,-3.91 -0.731,-0.921 -1.718,-1.382 -2.962,-1.382 -1.244,0 -2.237,0.458 -2.978,1.376 -0.741,0.918 -1.111,2.223 -1.111,3.916 0,1.692 0.371,2.997 1.111,3.916 0.741,0.917 1.734,1.376 2.978,1.376 1.243,0 2.23,-0.459 2.962,-1.376 z"
               style="fill:#ffffff" />
          </g>
          <g
             id="g3518"
             enable-background="new    "
             style="fill:#ffffff">
            <path
               id="path3520"
               d="m 15.94,136.984 c 0.307,-0.73 1.034,-1.505 2.178,-2.322 0.993,-0.71 1.636,-1.219 1.929,-1.528 0.448,-0.479 0.672,-1.003 0.672,-1.573 0,-0.463 -0.128,-0.85 -0.385,-1.155 -0.258,-0.309 -0.625,-0.464 -1.105,-0.464 -0.656,0 -1.101,0.246 -1.338,0.735 -0.136,0.281 -0.217,0.731 -0.241,1.346 l -2.097,0 c 0.036,-0.934 0.205,-1.688 0.507,-2.263 0.576,-1.094 1.598,-1.642 3.067,-1.642 1.161,0 2.084,0.323 2.772,0.965 0.687,0.643 1.029,1.495 1.029,2.553 0,0.814 -0.241,1.535 -0.727,2.164 -0.319,0.419 -0.842,0.887 -1.569,1.4 l -0.864,0.612 c -0.541,0.382 -0.91,0.66 -1.111,0.832 -0.199,0.171 -0.367,0.369 -0.501,0.599 l 4.788,0 0,1.897 -7.512,0 c 0.021,-0.786 0.19,-1.504 0.508,-2.156 z"
               style="fill:#ffffff" />
          </g>
          <g
             id="g3522"
             enable-background="new    "
             style="fill:#ffffff">
            <path
               id="path3524"
               d="m 24.168,118.723 3.292,0 5.966,10.48 0,-10.48 2.926,0 0,15.029 -3.14,0 -6.119,-10.664 0,10.664 -2.926,0 0,-15.029 z"
               style="fill:#ffffff" />
          </g>
        </g>
        <g
           id="g3526"
           style="fill:#ffffff">
          <g
             id="g3528"
             enable-background="new    "
             style="fill:#ffffff">
            <path
               id="path3530"
               d="m 87.96,45.296 3.293,0 5.965,10.481 0,-10.481 2.927,0 0,15.032 -3.142,0 -6.118,-10.665 0,10.665 -2.925,0 0,-15.032 z"
               style="fill:#ffffff" />
          </g>
          <g
             id="g3532"
             enable-background="new    "
             style="fill:#ffffff">
            <path
               id="path3534"
               d="m 116.655,94.135 3.295,0 5.967,10.479 0,-10.479 2.924,0 0,15.03 -3.14,0 -6.118,-10.664 0,10.664 -2.928,0 0,-15.03 z"
               style="fill:#ffffff" />
          </g>
          <g
             id="g3536"
             enable-background="new    "
             style="fill:#ffffff">
            <path
               id="path3538"
               d="m 59.938,94.135 3.292,0 5.966,10.479 0,-10.479 2.926,0 0,15.03 -3.14,0 -6.119,-10.664 0,10.664 -2.926,0 0,-15.03 z"
               style="fill:#ffffff" />
          </g>
        </g>
      </g>
    </g>
    <text
       id="text3725"
       y="807.50745"
       x="961.38678"
       style="font-style:normal;font-weight:normal;font-size:80px;line-height:125%;font-family:Sans;letter-spacing:0px;word-spacing:0px;fill:#ffffff;fill-opacity:1;stroke:none;stroke-width:1px;stroke-linecap:butt;stroke-linejoin:miter;stroke-opacity:1"
       xml:space="preserve"><tspan
         style="text-align:center;text-anchor:middle"
         y="807.50745"
         x="961.38678"
         id="tspan3727">Open Chaos — $id</tspan><tspan
         style="font-size:70.00000763px;text-align:center;text-anchor:middle"
         id="tspan3729"
         y="897.53998"
         x="961.38678">$personnames</tspan><tspan
         style="font-size:70.00000763px;text-align:center;text-anchor:middle"
         id="tspan3731"
         y="985.03998"
         x="961.38678">$title</tspan></text>
  </g>
</svg>
